<mxfile host="app.diagrams.net" agent="Mozilla/5.0 (Windows NT 10.0; Win64; x64) AppleWebKit/537.36 (KHTML, like Gecko) Chrome/134.0.0.0 Safari/537.36 Edg/134.0.0.0" version="26.2.4">
  <diagram name="Page-1" id="TgVzp4jufBiBDvZ9Ld3y">
    <mxGraphModel grid="1" page="1" gridSize="10" guides="1" tooltips="1" connect="1" arrows="1" fold="1" pageScale="1" pageWidth="850" pageHeight="1100" math="0" shadow="0">
      <root>
        <mxCell id="0" />
        <mxCell id="1" parent="0" />
        <mxCell id="AQ76jBypIVmP5gsSNya9-1" value="Helper Function: isValidGroup" style="whiteSpace=wrap;strokeWidth=2;verticalAlign=top;" vertex="1" parent="1">
          <mxGeometry x="20" y="20" width="463" height="1044" as="geometry" />
        </mxCell>
        <mxCell id="AQ76jBypIVmP5gsSNya9-2" value="Start isValidGroup" style="rounded=1;arcSize=20;strokeWidth=2" vertex="1" parent="AQ76jBypIVmP5gsSNya9-1">
          <mxGeometry x="170" y="46" width="159" height="54" as="geometry" />
        </mxCell>
        <mxCell id="AQ76jBypIVmP5gsSNya9-3" value="Initialize seen list" style="rounded=1;arcSize=20;strokeWidth=2" vertex="1" parent="AQ76jBypIVmP5gsSNya9-1">
          <mxGeometry x="170" y="175" width="157" height="54" as="geometry" />
        </mxCell>
        <mxCell id="AQ76jBypIVmP5gsSNya9-4" value="Iterate over group characters" style="rhombus;strokeWidth=2;whiteSpace=wrap;" vertex="1" parent="AQ76jBypIVmP5gsSNya9-1">
          <mxGeometry x="110" y="304" width="278" height="278" as="geometry" />
        </mxCell>
        <mxCell id="AQ76jBypIVmP5gsSNya9-5" value="Return false" style="rounded=1;arcSize=20;strokeWidth=2" vertex="1" parent="AQ76jBypIVmP5gsSNya9-1">
          <mxGeometry x="303" y="680" width="117" height="54" as="geometry" />
        </mxCell>
        <mxCell id="AQ76jBypIVmP5gsSNya9-6" value="Add to seen list" style="rounded=1;arcSize=20;strokeWidth=2" vertex="1" parent="AQ76jBypIVmP5gsSNya9-1">
          <mxGeometry x="43" y="680" width="141" height="54" as="geometry" />
        </mxCell>
        <mxCell id="AQ76jBypIVmP5gsSNya9-7" value="Continue loop" style="rounded=1;arcSize=20;strokeWidth=2" vertex="1" parent="AQ76jBypIVmP5gsSNya9-1">
          <mxGeometry x="102" y="809" width="130" height="54" as="geometry" />
        </mxCell>
        <mxCell id="AQ76jBypIVmP5gsSNya9-8" value="End isValidGroup" style="rounded=1;arcSize=20;strokeWidth=2" vertex="1" parent="AQ76jBypIVmP5gsSNya9-1">
          <mxGeometry x="286" y="809" width="150" height="54" as="geometry" />
        </mxCell>
        <mxCell id="AQ76jBypIVmP5gsSNya9-9" value="Return true" style="rounded=1;arcSize=20;strokeWidth=2" vertex="1" parent="AQ76jBypIVmP5gsSNya9-1">
          <mxGeometry x="110" y="961" width="112" height="54" as="geometry" />
        </mxCell>
        <mxCell id="AQ76jBypIVmP5gsSNya9-10" value="" style="curved=1;startArrow=none;endArrow=block;exitX=0.5;exitY=0.99;entryX=0.5;entryY=-0.01;rounded=0;" edge="1" parent="AQ76jBypIVmP5gsSNya9-1" source="AQ76jBypIVmP5gsSNya9-2" target="AQ76jBypIVmP5gsSNya9-3">
          <mxGeometry relative="1" as="geometry">
            <Array as="points" />
          </mxGeometry>
        </mxCell>
        <mxCell id="AQ76jBypIVmP5gsSNya9-11" value="" style="curved=1;startArrow=none;endArrow=block;exitX=0.5;exitY=0.99;entryX=0.5;entryY=0;rounded=0;" edge="1" parent="AQ76jBypIVmP5gsSNya9-1" source="AQ76jBypIVmP5gsSNya9-3" target="AQ76jBypIVmP5gsSNya9-4">
          <mxGeometry relative="1" as="geometry">
            <Array as="points" />
          </mxGeometry>
        </mxCell>
        <mxCell id="AQ76jBypIVmP5gsSNya9-12" value="Duplicate found" style="curved=1;startArrow=none;endArrow=block;exitX=0.8;exitY=1;entryX=0.5;entryY=-0.01;rounded=0;" edge="1" parent="AQ76jBypIVmP5gsSNya9-1" source="AQ76jBypIVmP5gsSNya9-4" target="AQ76jBypIVmP5gsSNya9-5">
          <mxGeometry relative="1" as="geometry">
            <Array as="points">
              <mxPoint x="361" y="631" />
            </Array>
          </mxGeometry>
        </mxCell>
        <mxCell id="AQ76jBypIVmP5gsSNya9-13" value="Unique" style="curved=1;startArrow=none;endArrow=block;exitX=0.14;exitY=1;entryX=0.5;entryY=-0.01;rounded=0;" edge="1" parent="AQ76jBypIVmP5gsSNya9-1" source="AQ76jBypIVmP5gsSNya9-4" target="AQ76jBypIVmP5gsSNya9-6">
          <mxGeometry relative="1" as="geometry">
            <Array as="points">
              <mxPoint x="114" y="631" />
            </Array>
          </mxGeometry>
        </mxCell>
        <mxCell id="AQ76jBypIVmP5gsSNya9-14" value="" style="curved=1;startArrow=none;endArrow=block;exitX=0.5;exitY=0.99;entryX=0.33;entryY=-0.01;rounded=0;" edge="1" parent="AQ76jBypIVmP5gsSNya9-1" source="AQ76jBypIVmP5gsSNya9-6" target="AQ76jBypIVmP5gsSNya9-7">
          <mxGeometry relative="1" as="geometry">
            <Array as="points">
              <mxPoint x="114" y="771" />
            </Array>
          </mxGeometry>
        </mxCell>
        <mxCell id="AQ76jBypIVmP5gsSNya9-15" value="" style="curved=1;startArrow=none;endArrow=block;exitX=0.67;exitY=-0.01;entryX=0.42;entryY=1;rounded=0;" edge="1" parent="AQ76jBypIVmP5gsSNya9-1" source="AQ76jBypIVmP5gsSNya9-7" target="AQ76jBypIVmP5gsSNya9-4">
          <mxGeometry relative="1" as="geometry">
            <Array as="points">
              <mxPoint x="219" y="771" />
              <mxPoint x="219" y="631" />
            </Array>
          </mxGeometry>
        </mxCell>
        <mxCell id="AQ76jBypIVmP5gsSNya9-16" value="" style="curved=1;startArrow=none;endArrow=block;exitX=0.5;exitY=0.99;entryX=0.5;entryY=-0.01;rounded=0;" edge="1" parent="AQ76jBypIVmP5gsSNya9-1" source="AQ76jBypIVmP5gsSNya9-5" target="AQ76jBypIVmP5gsSNya9-8">
          <mxGeometry relative="1" as="geometry">
            <Array as="points" />
          </mxGeometry>
        </mxCell>
        <mxCell id="AQ76jBypIVmP5gsSNya9-17" value="End loop" style="curved=1;startArrow=none;endArrow=block;exitX=0.5;exitY=0.99;entryX=0.51;entryY=-0.01;rounded=0;" edge="1" parent="AQ76jBypIVmP5gsSNya9-1" source="AQ76jBypIVmP5gsSNya9-7" target="AQ76jBypIVmP5gsSNya9-9">
          <mxGeometry relative="1" as="geometry">
            <Array as="points" />
          </mxGeometry>
        </mxCell>
        <mxCell id="AQ76jBypIVmP5gsSNya9-18" value="Start isValidSudoku" style="rounded=1;arcSize=20;strokeWidth=2" vertex="1" parent="1">
          <mxGeometry x="533" y="515" width="166" height="54" as="geometry" />
        </mxCell>
        <mxCell id="AQ76jBypIVmP5gsSNya9-19" value="Verify board dimensions" style="rhombus;strokeWidth=2;whiteSpace=wrap;" vertex="1" parent="1">
          <mxGeometry x="504" y="1114" width="225" height="225" as="geometry" />
        </mxCell>
        <mxCell id="AQ76jBypIVmP5gsSNya9-20" value="Return false" style="rounded=1;arcSize=20;strokeWidth=2" vertex="1" parent="1">
          <mxGeometry x="476" y="3236" width="117" height="54" as="geometry" />
        </mxCell>
        <mxCell id="AQ76jBypIVmP5gsSNya9-21" value="Initialize clues list" style="rounded=1;arcSize=20;strokeWidth=2" vertex="1" parent="1">
          <mxGeometry x="613" y="1412" width="161" height="54" as="geometry" />
        </mxCell>
        <mxCell id="AQ76jBypIVmP5gsSNya9-22" value="Validate board characters" style="rhombus;strokeWidth=2;whiteSpace=wrap;" vertex="1" parent="1">
          <mxGeometry x="574" y="1516" width="238" height="238" as="geometry" />
        </mxCell>
        <mxCell id="AQ76jBypIVmP5gsSNya9-23" value="Add clues if valid numbers" style="rounded=1;arcSize=20;strokeWidth=2" vertex="1" parent="1">
          <mxGeometry x="656" y="1828" width="219" height="54" as="geometry" />
        </mxCell>
        <mxCell id="AQ76jBypIVmP5gsSNya9-24" value="Check number of clues" style="rhombus;strokeWidth=2;whiteSpace=wrap;" vertex="1" parent="1">
          <mxGeometry x="657" y="1932" width="217" height="217" as="geometry" />
        </mxCell>
        <mxCell id="AQ76jBypIVmP5gsSNya9-25" value="Check rows for duplicates" style="rhombus;strokeWidth=2;whiteSpace=wrap;" vertex="1" parent="1">
          <mxGeometry x="723" y="2222" width="239" height="239" as="geometry" />
        </mxCell>
        <mxCell id="AQ76jBypIVmP5gsSNya9-26" value="Check columns for duplicates" style="rhombus;strokeWidth=2;whiteSpace=wrap;" vertex="1" parent="1">
          <mxGeometry x="791" y="2534" width="278" height="278" as="geometry" />
        </mxCell>
        <mxCell id="AQ76jBypIVmP5gsSNya9-27" value="Check subgrids for duplicates" style="rhombus;strokeWidth=2;whiteSpace=wrap;" vertex="1" parent="1">
          <mxGeometry x="891" y="2885" width="278" height="278" as="geometry" />
        </mxCell>
        <mxCell id="AQ76jBypIVmP5gsSNya9-28" value="Return true" style="rounded=1;arcSize=20;strokeWidth=2" vertex="1" parent="1">
          <mxGeometry x="1007" y="3236" width="112" height="54" as="geometry" />
        </mxCell>
        <mxCell id="AQ76jBypIVmP5gsSNya9-29" value="" style="curved=1;startArrow=none;endArrow=block;exitX=0.5;exitY=1;entryX=0.5;entryY=0;rounded=0;" edge="1" parent="1" source="AQ76jBypIVmP5gsSNya9-18" target="AQ76jBypIVmP5gsSNya9-19">
          <mxGeometry relative="1" as="geometry">
            <Array as="points" />
          </mxGeometry>
        </mxCell>
        <mxCell id="AQ76jBypIVmP5gsSNya9-30" value="Invalid" style="curved=1;startArrow=none;endArrow=block;exitX=0;exitY=0.85;entryX=0.02;entryY=0;rounded=0;" edge="1" parent="1" source="AQ76jBypIVmP5gsSNya9-19" target="AQ76jBypIVmP5gsSNya9-20">
          <mxGeometry relative="1" as="geometry">
            <Array as="points">
              <mxPoint x="404" y="1376" />
              <mxPoint x="404" y="3200" />
            </Array>
          </mxGeometry>
        </mxCell>
        <mxCell id="AQ76jBypIVmP5gsSNya9-31" value="Valid" style="curved=1;startArrow=none;endArrow=block;exitX=0.76;exitY=1;entryX=0.5;entryY=0.01;rounded=0;" edge="1" parent="1" source="AQ76jBypIVmP5gsSNya9-19" target="AQ76jBypIVmP5gsSNya9-21">
          <mxGeometry relative="1" as="geometry">
            <Array as="points">
              <mxPoint x="693" y="1376" />
            </Array>
          </mxGeometry>
        </mxCell>
        <mxCell id="AQ76jBypIVmP5gsSNya9-32" value="" style="curved=1;startArrow=none;endArrow=block;exitX=0.5;exitY=1.01;entryX=0.5;entryY=0;rounded=0;" edge="1" parent="1" source="AQ76jBypIVmP5gsSNya9-21" target="AQ76jBypIVmP5gsSNya9-22">
          <mxGeometry relative="1" as="geometry">
            <Array as="points" />
          </mxGeometry>
        </mxCell>
        <mxCell id="AQ76jBypIVmP5gsSNya9-33" value="Invalid" style="curved=1;startArrow=none;endArrow=block;exitX=0;exitY=0.91;entryX=0.39;entryY=0;rounded=0;" edge="1" parent="1" source="AQ76jBypIVmP5gsSNya9-22" target="AQ76jBypIVmP5gsSNya9-20">
          <mxGeometry relative="1" as="geometry">
            <Array as="points">
              <mxPoint x="504" y="1791" />
              <mxPoint x="504" y="3200" />
            </Array>
          </mxGeometry>
        </mxCell>
        <mxCell id="AQ76jBypIVmP5gsSNya9-34" value="Valid" style="curved=1;startArrow=none;endArrow=block;exitX=0.73;exitY=1;entryX=0.5;entryY=-0.01;rounded=0;" edge="1" parent="1" source="AQ76jBypIVmP5gsSNya9-22" target="AQ76jBypIVmP5gsSNya9-23">
          <mxGeometry relative="1" as="geometry">
            <Array as="points">
              <mxPoint x="766" y="1791" />
            </Array>
          </mxGeometry>
        </mxCell>
        <mxCell id="AQ76jBypIVmP5gsSNya9-35" value="" style="curved=1;startArrow=none;endArrow=block;exitX=0.5;exitY=0.99;entryX=0.5;entryY=0;rounded=0;" edge="1" parent="1" source="AQ76jBypIVmP5gsSNya9-23" target="AQ76jBypIVmP5gsSNya9-24">
          <mxGeometry relative="1" as="geometry">
            <Array as="points" />
          </mxGeometry>
        </mxCell>
        <mxCell id="AQ76jBypIVmP5gsSNya9-36" value="Less than 17" style="curved=1;startArrow=none;endArrow=block;exitX=0;exitY=0.96;entryX=0.77;entryY=0;rounded=0;" edge="1" parent="1" source="AQ76jBypIVmP5gsSNya9-24" target="AQ76jBypIVmP5gsSNya9-20">
          <mxGeometry relative="1" as="geometry">
            <Array as="points">
              <mxPoint x="609" y="2185" />
              <mxPoint x="609" y="3200" />
            </Array>
          </mxGeometry>
        </mxCell>
        <mxCell id="AQ76jBypIVmP5gsSNya9-37" value="Valid" style="curved=1;startArrow=none;endArrow=block;exitX=0.77;exitY=1;entryX=0.5;entryY=0;rounded=0;" edge="1" parent="1" source="AQ76jBypIVmP5gsSNya9-24" target="AQ76jBypIVmP5gsSNya9-25">
          <mxGeometry relative="1" as="geometry">
            <Array as="points">
              <mxPoint x="843" y="2185" />
            </Array>
          </mxGeometry>
        </mxCell>
        <mxCell id="AQ76jBypIVmP5gsSNya9-38" value="Invalid" style="curved=1;startArrow=none;endArrow=block;exitX=0.11;exitY=1;entryX=0.99;entryY=0.13;rounded=0;" edge="1" parent="1" source="AQ76jBypIVmP5gsSNya9-25" target="AQ76jBypIVmP5gsSNya9-20">
          <mxGeometry relative="1" as="geometry">
            <Array as="points">
              <mxPoint x="720" y="2498" />
              <mxPoint x="720" y="3200" />
            </Array>
          </mxGeometry>
        </mxCell>
        <mxCell id="AQ76jBypIVmP5gsSNya9-39" value="Valid" style="curved=1;startArrow=none;endArrow=block;exitX=0.78;exitY=1;entryX=0.5;entryY=0;rounded=0;" edge="1" parent="1" source="AQ76jBypIVmP5gsSNya9-25" target="AQ76jBypIVmP5gsSNya9-26">
          <mxGeometry relative="1" as="geometry">
            <Array as="points">
              <mxPoint x="930" y="2498" />
            </Array>
          </mxGeometry>
        </mxCell>
        <mxCell id="AQ76jBypIVmP5gsSNya9-40" value="Invalid" style="curved=1;startArrow=none;endArrow=block;exitX=0.21;exitY=1;entryX=0.99;entryY=0.27;rounded=0;" edge="1" parent="1" source="AQ76jBypIVmP5gsSNya9-26" target="AQ76jBypIVmP5gsSNya9-20">
          <mxGeometry relative="1" as="geometry">
            <Array as="points">
              <mxPoint x="830" y="2849" />
              <mxPoint x="830" y="3200" />
            </Array>
          </mxGeometry>
        </mxCell>
        <mxCell id="AQ76jBypIVmP5gsSNya9-41" value="Valid" style="curved=1;startArrow=none;endArrow=block;exitX=0.78;exitY=1;entryX=0.5;entryY=0;rounded=0;" edge="1" parent="1" source="AQ76jBypIVmP5gsSNya9-26" target="AQ76jBypIVmP5gsSNya9-27">
          <mxGeometry relative="1" as="geometry">
            <Array as="points">
              <mxPoint x="1030" y="2849" />
            </Array>
          </mxGeometry>
        </mxCell>
        <mxCell id="AQ76jBypIVmP5gsSNya9-42" value="Invalid" style="curved=1;startArrow=none;endArrow=block;exitX=0.28;exitY=1;entryX=0.99;entryY=0.34;rounded=0;" edge="1" parent="1" source="AQ76jBypIVmP5gsSNya9-27" target="AQ76jBypIVmP5gsSNya9-20">
          <mxGeometry relative="1" as="geometry">
            <Array as="points">
              <mxPoint x="953" y="3200" />
            </Array>
          </mxGeometry>
        </mxCell>
        <mxCell id="AQ76jBypIVmP5gsSNya9-43" value="Valid" style="curved=1;startArrow=none;endArrow=block;exitX=0.59;exitY=1;entryX=0.5;entryY=0;rounded=0;" edge="1" parent="1" source="AQ76jBypIVmP5gsSNya9-27" target="AQ76jBypIVmP5gsSNya9-28">
          <mxGeometry relative="1" as="geometry">
            <Array as="points">
              <mxPoint x="1063" y="3200" />
            </Array>
          </mxGeometry>
        </mxCell>
      </root>
    </mxGraphModel>
  </diagram>
</mxfile>
